<svg width="108" height="118" viewBox="0 0 108 118" fill="none" xmlns="http://www.w3.org/2000/svg">
<path d="M53.5 118C76.9721 118 96 98.9721 96 75.5C96 52.0279 76.9721 33 53.5 33C30.0279 33 11 52.0279 11 75.5C11 98.9721 30.0279 118 53.5 118Z" fill="white"/>
<path d="M82.0065 76.4286C80.6042 68.3045 77.2508 65.006 70.2391 60.9745C69.8733 60.7302 69.6294 60.3637 69.7513 59.9361C70.1172 57.676 69.3855 55.4159 67.6174 53.3391C63.2884 48.2692 53.3502 44.8485 46.2775 46.0091C42.1315 46.681 37.2538 48.0859 33.1078 53.2169C21.8282 67.6937 24.4499 85.8354 29.2057 103.366C29.3276 103.916 29.9373 104.221 30.4861 104.099L30.8519 103.977C31.4006 103.855 31.7055 103.244 31.5835 102.755C27.1326 86.3852 24.5719 69.5262 34.0833 56.0878C37.2538 51.5677 40.9731 49.4298 46.7043 48.4524C52.9234 47.414 62.069 50.5293 65.8492 54.9273C66.5809 55.7824 67.0686 56.6376 67.3125 57.4928C67.5564 58.2868 66.7638 59.0198 65.9712 58.7755C64.3249 58.1647 62.6787 57.9203 61.1544 58.1036C60.9106 58.1036 60.6057 58.0425 60.4228 57.9203C54.9354 53.6445 48.4725 52.2396 44.0216 54.5608C41.034 56.0878 39.5098 59.0809 39.8146 62.7459C40.1195 66.3498 42.9851 67.6326 45.7898 68.8542C48.1067 69.8927 50.5455 70.9311 51.8259 73.3744C52.3137 74.7182 53.1673 76.001 54.5086 77.2227C55.1183 77.7724 54.8135 78.8108 53.9599 78.933C48.4725 79.8492 40.9731 77.3448 37.2538 73.5577C36.827 73.1301 36.1564 73.069 35.6686 73.4355C35.1198 73.8631 35.0589 74.7182 35.5466 75.268C37.4977 77.2227 40.1804 78.8108 43.168 79.9103C44.6313 80.4601 45.6069 81.865 45.5459 83.4532C45.241 89.6837 45.9117 96.2807 47.497 103.061C47.6799 103.733 48.3505 104.099 48.9603 103.977C49.6309 103.794 49.9968 103.183 49.8748 102.511C48.4725 96.4639 47.8018 90.661 47.9237 85.1024C47.9847 83.1477 49.6309 81.4985 51.582 81.4985H51.643C52.6185 81.4985 53.5331 81.4374 54.3867 81.2542C55.6061 81.0709 56.7036 80.7044 57.801 80.2768C58.1059 80.1547 58.4717 80.1547 58.7766 80.3379C58.8985 80.399 58.9595 80.4601 59.0814 80.5212C60.9106 81.6817 62.2519 83.4532 62.8616 85.4689C62.8616 85.4689 62.8616 85.4689 62.8616 85.53C63.4713 87.6068 64.203 90.0502 65.3614 92.7989C65.3614 92.86 65.4224 92.9822 65.4224 92.9822C66.3979 95.3033 67.7393 97.8077 69.5684 100.373L69.6294 100.495C69.8733 100.801 70.2391 100.984 70.6049 100.923H70.7269C75.0558 100.19 78.5312 96.7082 80.6042 91.2107C82.3114 86.6295 82.7991 81.0709 82.0065 76.4286ZM47.375 63.4178C45.8507 63.4178 44.5703 62.1962 44.5703 60.608C44.5703 59.0809 45.7898 57.7982 47.375 57.7982C48.8993 57.7982 50.1797 59.0198 50.1797 60.608C50.1797 62.1351 48.9603 63.4178 47.375 63.4178ZM60.1789 60.7302C60.8496 60.5469 61.4593 60.4248 62.069 60.4248C63.8372 60.4248 65.4224 61.0967 66.6418 61.7075C67.7393 62.3183 68.7758 62.8681 69.7513 63.4789C71.8853 64.7006 72.3121 67.6937 70.544 69.404C69.8123 70.137 69.1416 70.9922 68.5929 71.9695C68.2271 72.5803 67.3125 72.6414 66.8857 72.0306C64.7517 69.1597 62.008 67.938 58.9595 66.6553H58.8985C56.8865 65.8001 56.5207 63.0513 58.2888 61.7686C58.8376 61.2799 59.5082 60.9134 60.1789 60.7302ZM65.3005 85.5911C65.2395 85.3467 65.1785 85.1635 65.1176 84.9192C64.6298 83.331 64.264 81.9261 63.7762 80.8266L63.5933 80.4601L63.2275 80.2768C61.2764 79.1773 59.6911 78.2 58.4108 77.2837V77.2227C56.3377 75.6956 55.0573 74.3517 54.3867 73.0079C54.3257 72.8247 54.2647 72.7025 54.2038 72.5803C54.2038 72.5192 54.2038 72.5192 54.1428 72.4582C53.3502 70.137 55.728 67.938 58.0449 68.9153H58.1059C62.069 70.6257 64.6908 71.7862 66.6418 76.3064C66.7028 76.5507 66.7638 76.734 66.7028 76.9783C65.7882 79.7882 65.4224 82.7812 65.3005 85.5911ZM78.2873 90.4167C77.3727 92.7989 75.4217 96.7082 71.8244 98.1132C71.3976 98.2964 70.8488 98.1132 70.6049 97.7467C69.4465 95.9752 68.5319 94.2038 67.8003 92.5546C67.7393 92.4324 67.7393 92.2492 67.6783 92.127C67.4954 80.6433 69.0197 73.7409 72.617 70.7478C74.5071 69.1597 77.4337 69.9537 78.3483 72.2138C78.897 73.5577 79.2628 75.0237 79.5677 76.7951C80.3603 81.0709 79.8116 86.263 78.2873 90.4167Z" fill="black"/>
<path d="M1.64178 20.6048V9.52277H0V7.79642L1.64178 7.29522C1.66065 7.05389 1.67952 6.8126 1.69839 6.57127C1.73613 6.32994 1.76444 6.08864 1.78331 5.84731C1.87766 5.17905 2.02863 4.53863 2.23621 3.92605C2.46266 3.31348 2.7646 2.78444 3.14202 2.33893C3.53831 1.87485 4.02894 1.5036 4.61396 1.22515C5.19897 0.946708 5.89717 0.807487 6.70863 0.807487C8.01073 0.807487 8.90712 1.12305 9.39775 1.75419C9.90727 2.38533 10.162 3.12785 10.162 3.98174C10.162 4.2045 10.1431 4.42725 10.1054 4.65001C10.0865 4.87276 10.0394 5.10479 9.96388 5.34612H8.88823C8.8505 5.06767 8.73728 4.8078 8.54856 4.56647C8.37872 4.30661 8.05792 4.17665 7.58613 4.17665C7.11435 4.17665 6.76525 4.32514 6.5388 4.62216C6.33123 4.91918 6.22742 5.32754 6.22742 5.84731C6.22742 6.10718 6.24631 6.33924 6.28404 6.54342C6.34065 6.7476 6.39726 6.97966 6.45388 7.23953H9.36944V9.52277H6.76525C6.78413 9.70841 6.79355 9.92186 6.79355 10.1632C6.79355 10.3859 6.79355 10.6273 6.79355 10.8871V20.6048H1.64178ZM11.0395 1.11377L16.1913 0.835331V20.6048H11.0395V1.11377ZM18.1747 17.2635C18.1747 16.7252 18.2597 16.2054 18.4295 15.7042C18.5993 15.1844 18.8824 14.7297 19.2787 14.3398C19.675 13.95 20.2034 13.6345 20.8638 13.3931C21.5244 13.1518 22.3358 13.0312 23.2982 13.0312C23.6379 13.0312 24.0247 13.0683 24.4588 13.1425C24.8928 13.1982 25.2513 13.3003 25.5344 13.4488V12.9476C25.5344 12.0009 25.3268 11.3141 24.9117 10.8871C24.4965 10.4416 23.8832 10.2189 23.0718 10.2189C22.3735 10.2189 21.8074 10.4138 21.3734 10.8036C20.9393 11.1934 20.6469 11.6018 20.4959 12.0288H19.1655C19.1655 11.3419 19.2693 10.6737 19.4768 10.024C19.6844 9.37428 20.0147 8.80809 20.4676 8.32546C20.9393 7.82426 21.5338 7.42517 22.2509 7.12816C22.9868 6.83114 23.8643 6.68265 24.8834 6.68265C26.6384 6.68265 27.9971 7.14673 28.9595 8.07486C29.9219 8.98446 30.4031 10.2746 30.4031 11.9452V15.927C30.4031 16.5767 30.422 17.1335 30.4597 17.5976C30.4975 18.0617 30.5635 18.4701 30.6579 18.8228C30.7145 19.0084 30.7994 19.2033 30.9126 19.4075C31.0259 19.6117 31.1863 19.7788 31.3939 19.9087V20.577C31.224 20.6512 30.9315 20.7255 30.5164 20.7997C30.1201 20.874 29.7238 20.9111 29.3275 20.9111C28.4972 20.9111 27.7518 20.7812 27.0913 20.5213C26.4497 20.2614 26.0062 19.7602 25.7609 19.0177C25.4212 19.5932 24.9494 20.0758 24.3455 20.4656C23.7606 20.8368 22.9963 21.0225 22.0527 21.0225C20.694 21.0225 19.7033 20.6419 19.0805 19.8809C18.4767 19.1198 18.1747 18.2473 18.1747 17.2635ZM23.0434 16.6509C23.0434 17.0036 23.1378 17.2913 23.3265 17.5141C23.5152 17.7369 23.7983 17.8482 24.1757 17.8482C24.7418 17.8482 25.1098 17.5976 25.2797 17.0964C25.4495 16.5952 25.5344 15.9734 25.5344 15.2309V15.0638C25.4401 15.0452 25.3174 15.0174 25.1664 14.9803C25.0155 14.9431 24.8456 14.9246 24.6569 14.9246C24.1286 14.9246 23.7228 15.0731 23.4397 15.3701C23.1756 15.6671 23.0434 16.094 23.0434 16.6509ZM33.0943 7.23953L37.4819 6.96109L38.0197 11.5833C38.0763 10.9521 38.1798 10.3395 38.3311 9.74553C38.4819 9.15152 38.7084 8.63175 39.0104 8.18624C39.3311 7.72216 39.7464 7.36018 40.2559 7.10031C40.784 6.82187 41.4448 6.68265 42.2374 6.68265C43.7093 6.68265 44.7376 7.08174 45.3228 7.87995C45.9075 8.65959 46.2379 9.71768 46.3135 11.0542C46.4077 10.4787 46.5492 9.92186 46.7381 9.38355C46.9455 8.84524 47.2096 8.38115 47.5307 7.99133C47.8513 7.60151 48.257 7.28595 48.7478 7.04462C49.2384 6.80329 49.8328 6.68265 50.5312 6.68265C51.3614 6.68265 52.0314 6.8126 52.5409 7.07247C53.0504 7.3138 53.4467 7.66647 53.7298 8.13055C54.0129 8.59464 54.2013 9.15152 54.2959 9.80121C54.3901 10.4509 54.4374 11.1749 54.4374 11.9731V20.6048H49.2857V14.4234C49.2857 12.9384 49.1818 11.9823 48.9743 11.5554C48.7855 11.1099 48.4741 10.8871 48.0402 10.8871C47.3984 10.8871 46.9549 11.3419 46.7098 12.2515C46.4643 13.1611 46.3418 14.6832 46.3418 16.818V20.6048H41.19V14.4234C41.19 12.9384 41.0861 11.9823 40.8786 11.5554C40.6898 11.1099 40.3784 10.8871 39.9445 10.8871C39.3028 10.8871 38.8592 11.3419 38.6141 12.2515C38.3687 13.1611 38.2461 14.6832 38.2461 16.818V20.6048H33.0943V7.23953ZM57.1161 7.23953L62.2679 6.96109V20.6048H57.1161V7.23953ZM57.2577 4.06528V0H62.4094V4.06528H57.2577ZM65.2431 7.23953L69.6306 6.96109L70.1684 11.4997C70.225 10.85 70.3289 10.2375 70.4798 9.66199C70.6496 9.06799 70.8951 8.55749 71.2157 8.13055C71.5364 7.68504 71.961 7.33233 72.4895 7.07247C73.018 6.8126 73.6784 6.68265 74.471 6.68265C76.1128 6.68265 77.226 7.16527 77.8111 8.13055C78.4149 9.09584 78.7169 10.3767 78.7169 11.9731V20.6048H73.5652V14.4234C73.5652 12.9384 73.4426 11.9823 73.1972 11.5554C72.9517 11.1099 72.6121 10.8871 72.1782 10.8871C71.5364 10.8871 71.0742 11.3419 70.7911 12.2515C70.5271 13.1611 70.3949 14.6832 70.3949 16.818V20.6048H65.2431V7.23953ZM82.6031 27.5659C80.7349 27.5659 79.4328 27.2504 78.6968 26.6192C77.9609 26.0066 77.5929 25.2734 77.5929 24.4195C77.5929 24.1039 77.6778 23.7883 77.8476 23.4728C77.9985 23.1572 78.2156 22.8881 78.4987 22.6653H79.263C79.244 22.8324 79.2253 22.9902 79.2064 23.1387C79.1874 23.3057 79.1781 23.4728 79.1781 23.6399C79.1781 24.3267 79.4328 24.9485 79.9423 25.5054C80.4518 26.0809 81.4709 26.3686 82.9994 26.3686C84.6222 26.3686 85.8301 26.0716 86.6227 25.4776C87.4342 24.8836 87.8398 24.2153 87.8398 23.4728C87.8398 22.8416 87.6227 22.3683 87.1888 22.0527C86.7735 21.7372 86.1321 21.5515 85.2639 21.4958L83.5656 21.3845C82.3767 21.3102 81.3576 21.1153 80.5085 20.7997C79.6783 20.4842 79.263 19.7788 79.263 18.6836C79.263 17.941 79.5553 17.2635 80.1405 16.6509C80.7256 16.0198 81.6597 15.5743 82.9428 15.3144C82.5841 15.0174 82.2728 14.6369 82.0087 14.1728C81.7633 13.7087 81.6407 13.1054 81.6407 12.3629C81.6407 11.6761 81.7822 11.0171 82.0653 10.3859C82.3674 9.73626 82.7823 9.17006 83.3108 8.68744C83.8579 8.20482 84.509 7.82426 85.2639 7.54582C86.0189 7.2488 86.8584 7.10031 87.7832 7.10031C88.9531 7.10031 89.8403 7.3138 90.444 7.74073C91.0668 8.16767 91.4914 8.62248 91.7178 9.1051C91.8877 8.41826 92.1897 7.96349 92.6236 7.74073C93.0575 7.4994 93.4821 7.37875 93.8974 7.37875C94.4825 7.37875 94.8975 7.53655 95.1429 7.85211C95.3883 8.14913 95.5109 8.47395 95.5109 8.82666C95.5109 9.0123 95.4733 9.19791 95.3977 9.38355C95.341 9.56919 95.2751 9.72695 95.1995 9.8569H94.3786C94.5108 9.44851 94.5295 9.11437 94.4352 8.85451C94.3596 8.57606 94.1712 8.43684 93.8691 8.43684C93.586 8.43684 93.3406 8.56679 93.1331 8.82666C92.9257 9.08653 92.7558 9.58773 92.6236 10.3303L92.3972 11.4997C92.1517 12.8362 91.4914 13.9779 90.4157 14.9246C89.3401 15.8713 87.8871 16.3446 86.0565 16.3446C85.6602 16.3446 85.3112 16.3261 85.0092 16.2889C84.7071 16.2333 84.4054 16.1683 84.1034 16.094C83.16 16.1683 82.424 16.3818 81.8955 16.7345C81.367 17.0686 81.1029 17.4677 81.1029 17.9318C81.1029 18.2473 81.2444 18.4701 81.5275 18.6C81.8295 18.73 82.3577 18.7949 83.1126 18.7949H85.915C87.3493 18.7949 88.4436 19.0548 89.1985 19.5746C89.9721 20.0944 90.3591 20.9111 90.3591 22.0249C90.3591 22.7117 90.2083 23.38 89.9062 24.0297C89.6041 24.6979 89.1326 25.2919 88.4909 25.8117C87.8681 26.3315 87.0662 26.7492 86.0848 27.0647C85.1034 27.3988 83.9428 27.5659 82.6031 27.5659ZM89.0853 12.3072C89.3308 11.6761 89.5289 11.1842 89.6798 10.8315C89.8306 10.4787 89.9062 10.1446 89.9062 9.82906C89.9062 9.30928 89.7364 8.89162 89.3967 8.57606C89.076 8.24193 88.5382 8.07486 87.7832 8.07486C86.953 8.07486 86.3869 8.36258 86.0848 8.93804C85.8018 9.5135 85.4904 10.256 85.1507 11.1656C84.9619 11.7039 84.7734 12.1494 84.5846 12.5021C84.3958 12.8362 84.3015 13.1796 84.3015 13.5324C84.3015 13.9779 84.462 14.3955 84.7827 14.7854C85.1034 15.1566 85.6412 15.3422 86.3962 15.3422C87.2264 15.3422 87.8022 15.036 88.1229 14.4234C88.4626 13.8108 88.7833 13.1054 89.0853 12.3072ZM95.1772 16.3168C95.1772 15.2958 95.3939 14.2377 95.8282 13.1425C96.2811 12.0473 96.8756 11.0542 97.6115 10.1632C98.3475 9.27217 99.206 8.53895 100.187 7.96349C101.187 7.38802 102.225 7.10031 103.301 7.10031C104.773 7.10031 105.924 7.50871 106.755 8.32546C107.585 9.12368 108 10.2375 108 11.6668C108 12.6878 107.774 13.7458 107.321 14.841C106.886 15.9362 106.302 16.9294 105.566 17.8204C104.83 18.7114 103.961 19.4446 102.961 20.0201C101.98 20.5956 100.952 20.8833 99.876 20.8833C98.4041 20.8833 97.2529 20.4842 96.4227 19.686C95.5921 18.8877 95.1772 17.7647 95.1772 16.3168ZM103.924 14.1728C104.169 13.5973 104.395 13.124 104.603 12.7527C104.83 12.3815 105.028 12.0566 105.198 11.7782C105.368 11.4997 105.499 11.2399 105.594 10.9985C105.688 10.7572 105.735 10.4787 105.735 10.1632C105.735 9.64342 105.537 9.18864 105.141 8.79882C104.763 8.409 104.169 8.21409 103.358 8.21409C102.716 8.21409 102.187 8.38115 101.773 8.71528C101.376 9.03084 101.037 9.44851 100.754 9.96828C100.489 10.4881 100.244 11.0821 100.018 11.7503C99.8097 12.4186 99.555 13.1054 99.2529 13.8108C99.0079 14.3863 98.7721 14.8596 98.5456 15.2309C98.3378 15.6021 98.1493 15.927 97.9795 16.2054C97.8097 16.4839 97.6775 16.7437 97.5832 16.9851C97.4886 17.2264 97.4417 17.5048 97.4417 17.8204C97.4417 18.3402 97.6301 18.7949 98.0078 19.1848C98.3851 19.5746 98.9795 19.7695 99.7911 19.7695C100.432 19.7695 100.952 19.6117 101.348 19.2961C101.763 18.962 102.103 18.5351 102.367 18.0153C102.65 17.4955 102.905 16.9015 103.131 16.2333C103.358 15.565 103.622 14.8782 103.924 14.1728Z" fill="white"/>
</svg>
