<svg width="24" height="23" viewBox="0 0 24 23" fill="none" xmlns="http://www.w3.org/2000/svg">
<path d="M15.499 13.3571H14.709L14.429 13.0995C15.409 12.0118 15.999 10.5998 15.999 9.06376C15.999 5.63865 13.089 2.8623 9.49902 2.8623C5.90902 2.8623 2.99902 5.63865 2.99902 9.06376C2.99902 12.4889 5.90902 15.2652 9.49902 15.2652C11.109 15.2652 12.589 14.7023 13.729 13.7673L13.999 14.0345V14.7882L18.999 19.549L20.489 18.1274L15.499 13.3571V13.3571ZM9.49902 13.3571C7.00902 13.3571 4.99902 11.4394 4.99902 9.06376C4.99902 6.68812 7.00902 4.77044 9.49902 4.77044C11.989 4.77044 13.999 6.68812 13.999 9.06376C13.999 11.4394 11.989 13.3571 9.49902 13.3571Z" fill="white"/>
</svg>
